<?xml version="1.0" standalone="no"?>
<!DOCTYPE svg PUBLIC "-//W3C//DTD SVG 20010904//EN"
 "http://www.w3.org/TR/2001/REC-SVG-20010904/DTD/svg10.dtd">
<svg version="1.0" xmlns="http://www.w3.org/2000/svg"
 width="192.000000pt" height="192.000000pt" viewBox="0 0 192.000000 192.000000"
 preserveAspectRatio="xMidYMid meet">
<metadata>
Created by potrace 1.11, written by Peter Selinger 2001-2013
</metadata>
<g transform="translate(0.000000,192.000000) scale(0.100000,-0.100000)"
fill="#000000" stroke="none">
<path d="M81 1902 c-19 -9 -44 -30 -55 -45 -21 -28 -21 -34 -21 -897 0 -863 0
-869 21 -897 11 -15 36 -36 55 -45 32 -17 94 -18 879 -18 785 0 847 1 879 18
19 9 44 30 55 45 21 28 21 34 21 897 0 863 0 869 -21 897 -11 15 -36 36 -55
45 -32 17 -94 18 -879 18 -785 0 -847 -1 -879 -18z m1232 -468 l37 -7 0 -418
0 -419 31 0 c17 0 52 -9 79 -21 47 -20 49 -23 43 -53 -8 -41 -7 -41 -37 -11
-30 30 -89 57 -163 74 -62 15 -155 3 -267 -35 -38 -13 -72 -24 -75 -24 -3 0
-6 161 -7 359 -1 197 -4 390 -8 430 -7 71 -7 71 18 71 13 0 37 5 53 11 103 40
215 56 296 43z m-500 -10 l37 -7 0 -414 0 -414 -74 7 c-92 8 -183 -7 -276 -47
-40 -17 -75 -27 -79 -24 -7 8 -18 353 -20 633 l-1 203 48 20 c99 43 254 61
365 43z"/>
</g>
</svg>
